<?xml version="1.0" standalone="no"?>
<!DOCTYPE svg PUBLIC "-//W3C//DTD SVG 20010904//EN"
 "http://www.w3.org/TR/2001/REC-SVG-20010904/DTD/svg10.dtd">
<svg version="1.0" xmlns="http://www.w3.org/2000/svg"
 width="512.000000pt" height="512.000000pt" viewBox="0 0 512.000000 512.000000"
 preserveAspectRatio="xMidYMid meet">

<g transform="translate(0.000000,512.000000) scale(0.100000,-0.100000)"
fill="#000000" stroke="none">
<path d="M4600 3480 l-195 -5 -653 -815 c-359 -448 -671 -839 -694 -868 -46
-59 -53 -101 -22 -132 17 -17 44 -19 325 -26 226 -5 314 -4 340 5 28 10 144
149 709 856 371 465 683 857 692 872 25 39 22 60 -11 94 l-29 29 -134 -2 c-73
-1 -221 -5 -328 -8z"/>
<path d="M1875 3460 c-322 -59 -597 -203 -822 -430 -105 -106 -1040 -1272
-1049 -1308 -5 -16 0 -33 13 -50 l20 -27 339 0 339 0 381 475 c326 407 392
485 464 542 97 78 230 148 345 180 79 22 91 23 847 28 664 4 769 7 782 20 8 8
100 122 205 254 202 253 212 270 171 314 l-21 22 -957 -1 c-882 -1 -965 -2
-1057 -19z"/>
<path d="M2048 2550 c-134 -23 -253 -85 -345 -181 -29 -30 -156 -184 -282
-343 -244 -305 -252 -319 -211 -364 21 -22 24 -22 354 -22 l334 0 119 150 118
149 305 1 c223 0 312 4 330 13 26 13 406 479 416 510 9 28 -16 77 -43 88 -30
11 -1028 10 -1095 -1z"/>
</g>
</svg>
